<svg width="16" height="16" viewBox="0 0 16 16" fill="none" xmlns="http://www.w3.org/2000/svg">
<path d="M9.99997 6.66654L7.3333 9.33321L5.99997 7.99987M8.8307 2.30586L9.64467 2.99953C9.84974 3.17429 10.1044 3.27994 10.3729 3.30137L11.439 3.38633C12.0657 3.43635 12.5636 3.93386 12.6136 4.56062L12.6983 5.62682C12.7198 5.8954 12.8258 6.15039 13.0006 6.35546L13.6939 7.16921C14.1017 7.64776 14.1018 8.35169 13.694 8.83024L13.0006 9.64412C12.8259 9.84918 12.72 10.1043 12.6985 10.3729L12.6132 11.4389C12.5632 12.0656 12.0662 12.5635 11.4394 12.6135L10.373 12.6986C10.1044 12.72 9.84957 12.8254 9.6445 13.0001L8.8307 13.6938C8.35215 14.1016 7.64779 14.1017 7.16924 13.6939L6.35544 13.0002C6.15037 12.8254 5.8955 12.7199 5.62692 12.6984L4.56051 12.6135C3.93376 12.5635 3.4367 12.0658 3.38669 11.439L3.3014 10.3729C3.27997 10.1043 3.17408 9.84947 2.99932 9.6444L2.30596 8.83028C1.89814 8.35173 1.89795 7.64802 2.30577 7.16947L2.99975 6.35534C3.17451 6.15027 3.27938 5.8954 3.30082 5.62683L3.3861 4.56074C3.43612 3.93399 3.93461 3.43628 4.56136 3.38627L5.62659 3.3013C5.89517 3.27987 6.15016 3.17431 6.35523 2.99955L7.16931 2.30586C7.64786 1.89805 8.35215 1.89805 8.8307 2.30586Z" stroke="url(#paint0_linear_4305_3306)" stroke-width="2" stroke-linecap="round" stroke-linejoin="round"/>
<defs>
<linearGradient id="paint0_linear_4305_3306" x1="2" y1="7.99986" x2="13.9998" y2="7.99986" gradientUnits="userSpaceOnUse">
<stop offset="0.17" stop-color="#F8DB3A"/>
<stop offset="0.825" stop-color="#F8B932"/>
</linearGradient>
</defs>
</svg>
